<?xml version="1.0" standalone="no"?>
<!DOCTYPE svg PUBLIC "-//W3C//DTD SVG 20010904//EN"
 "http://www.w3.org/TR/2001/REC-SVG-20010904/DTD/svg10.dtd">
<svg version="1.0" xmlns="http://www.w3.org/2000/svg"
 width="692.000000pt" height="692.000000pt" viewBox="0 0 692.000000 692.000000"
 preserveAspectRatio="xMidYMid meet">
<metadata>
Created by potrace 1.11, written by Peter Selinger 2001-2013
</metadata>
<g transform="translate(0.000000,692.000000) scale(0.100000,-0.100000)"
fill="#000000" stroke="none">
<path d="M3160 5954 c-14 -2 -59 -9 -100 -15 -112 -16 -282 -62 -400 -109
-211 -83 -457 -227 -600 -351 -41 -36 -147 -123 -235 -194 -374 -302 -579
-485 -713 -637 l-83 -94 -67 23 c-87 29 -204 31 -294 3 -164 -50 -337 -205
-444 -395 -181 -324 -266 -1051 -177 -1515 55 -289 233 -564 423 -654 89 -42
208 -48 306 -16 l68 23 19 -24 c330 -414 765 -710 1288 -877 312 -100 729
-172 989 -172 288 1 632 91 859 226 109 65 237 185 305 287 85 127 115 214
162 464 3 15 21 29 59 47 89 40 198 122 282 209 133 138 219 300 271 507 24
96 26 122 27 307 l0 203 226 0 c249 0 538 -12 814 -35 305 -25 390 -18 515 42
67 32 155 119 193 190 196 367 -57 906 -539 1147 -263 131 -495 167 -956 147
-149 -6 -272 -10 -273 -9 -2 2 -24 46 -50 98 -109 218 -259 424 -445 610 -315
317 -663 498 -1063 555 -92 13 -303 18 -367 9z m460 -228 c180 -42 303 -91
455 -181 294 -173 571 -468 758 -807 l37 -66 -27 -6 c-127 -25 -716 -66 -967
-66 l-128 0 -82 77 c-202 191 -346 261 -516 251 -106 -6 -190 -47 -282 -138
-65 -62 -68 -68 -68 -112 0 -60 28 -85 147 -128 202 -73 413 -119 646 -141
217 -20 657 -6 1117 35 813 73 1074 72 1332 -4 327 -97 586 -344 659 -628 50
-196 -4 -363 -138 -428 -54 -27 -66 -29 -183 -29 -69 0 -237 9 -375 20 -314
24 -1239 29 -1415 7 -220 -28 -408 -81 -572 -162 -96 -47 -261 -150 -253 -158
2 -2 25 3 52 12 114 38 333 76 578 101 139 15 504 32 506 24 11 -64 15 -209 8
-293 -22 -263 -117 -470 -288 -628 -90 -83 -162 -121 -391 -203 -209 -76 -421
-173 -510 -236 -33 -23 -59 -43 -58 -45 2 -1 39 6 83 17 110 26 505 93 511 86
3 -3 -4 -43 -15 -89 -71 -279 -263 -464 -596 -573 -295 -97 -549 -107 -955
-39 -612 103 -1116 348 -1487 723 -121 121 -256 289 -294 363 -142 279 -166
946 -55 1488 30 146 56 222 113 335 82 164 176 288 368 483 159 163 274 266
560 497 121 98 249 204 285 235 235 207 632 387 945 429 124 17 375 5 495 -23z
m-342 -1014 c26 -10 66 -31 87 -45 36 -25 38 -27 15 -27 -28 0 -210 43 -255
60 -23 9 -26 13 -15 20 25 16 117 11 168 -8z m-2391 -320 c9 -5 1 -25 -28 -71
-144 -229 -212 -461 -255 -879 -22 -212 -22 -582 0 -766 19 -151 59 -326 99
-423 l26 -63 -27 -6 c-15 -3 -37 -7 -48 -9 -12 -3 -45 2 -75 11 -70 21 -154
106 -227 229 -59 101 -94 202 -119 343 -24 136 -24 537 0 712 36 259 87 460
149 585 76 152 210 287 326 330 40 15 160 19 179 7z"/>
<path d="M1157 3520 c-57 -67 -22 -153 66 -165 121 -16 330 -25 583 -25 l282
0 31 26 c26 22 31 33 31 70 0 54 -30 90 -81 98 -19 3 -187 8 -374 11 -187 3
-379 8 -426 11 l-86 6 -26 -32z"/>
<path d="M1147 2989 c-51 -30 -58 -121 -11 -158 34 -27 287 -86 582 -136 180
-30 660 -95 699 -95 82 1 120 111 59 169 -22 21 -59 28 -343 67 -349 48 -518
77 -754 129 -164 37 -203 41 -232 24z"/>
<path d="M1134 2522 c-50 -40 -55 -109 -11 -149 26 -25 222 -123 373 -189 130
-55 487 -174 525 -174 35 0 85 42 92 77 7 39 -16 89 -50 106 -15 8 -95 36
-178 62 -190 59 -322 114 -513 209 -160 80 -200 90 -238 58z"/>
</g>
</svg>
