<svg id="Layer_1" data-name="Layer 1" xmlns="http://www.w3.org/2000/svg" viewBox="0 0 173.36 125.66"><defs><style>.cls-1{fill:#fff;}.cls-1,.cls-2{stroke:#000;stroke-linecap:round;stroke-linejoin:round;stroke-width:5px;}.cls-2{fill:none;}</style></defs><title>Artboard 1</title><path class="cls-1" d="M21.15,95.72c-7.51,4.58-12.31-.6-15.88-7.59-5-9.88-2.58-34.34,2.46-42.72C12.41,37.73,19.18,34.32,25.22,38"/><path class="cls-1" d="M125.71,34.58C115.42,10.66,87.21-11.12,54.1,13c-8,7.64-29.5,20.93-34.42,37.46C16.35,61.67,15,86.57,21.52,95.4,32.6,110.51,47,118.14,64.73,121.6c6.28,1.22,13.42,2.1,19.33,1.17,24.65-3.91,24.64-18.4,25.51-24,10.74-3.36,18.52-15.64,15.25-32.1A310.18,310.18,0,0,1,158.72,68c20.95,1.83,14.83-34.56-18.79-33.82-24.23,0-46.45,6.9-67.56-2,7-8.32,14.51-1.79,20.15,4.47,20-.18,21.23-1,33.19-2.13Z"/><path d="M125.62,64.16c-12.63,0-22.44,1.49-32.08,8.89,8-3.09,24.16-4.14,34.34-3.91Z"/><path d="M111.85,100.64,110,96c-6.85,2.38-14.62,5-18.68,8.76C94.53,103.38,106.07,102.15,111.85,100.64Z"/><path class="cls-2" d="M29.65,88.22c11.45,6.08,14.77,6.34,20.68,8.41"/><path class="cls-2" d="M29.89,76.65C43.8,80.06,50.7,80.4,60.18,81.83"/><path class="cls-2" d="M30.51,62.84c9.85,1,14.53.64,20.8.68"/></svg>