<svg xmlns="http://www.w3.org/2000/svg" id="b03459d2-f211-4f27-92cf-cab4da9ce3a8" data-name="Layer 1" viewBox="0 0 2600 1411.06">
  <defs>
    <style>
      .f43d9859-9582-486b-8614-5d609356fb55{fill:#010101}
    </style>
  </defs>
  <g id="a7da32b3-f952-46d1-b123-4d63d34cb1bf" data-name="overlay">
    <path d="M507.41 687.37c-11.94 0-20.36 6.74-21.73 19.14h43c-.9-11.64-8.87-19.14-21.27-19.14zM545.82 361.3c0 16.68 9.19 26.33 22.2 26.33s22.05-9.8 22.05-26.33-9.19-26.18-22.2-26.18-22.05 9.65-22.05 26.18zM655.93 565.21c12.85 0 22-9.8 22-26.33s-9.19-26.18-22.2-26.18-22 9.64-22 26.18 9.18 26.33 22.2 26.33zM141.21 509.79c-11.94 0-20.36 6.74-21.74 19.14h43c-.9-11.64-8.86-19.14-21.26-19.14zM347.06 867.85c-12.86 0-22 9.66-22 26.19 0 16.68 9.18 26.32 22.19 26.32s22.05-9.8 22.05-26.32-9.23-26.19-22.24-26.19zM527.06 210.05c12.86 0 22-9.8 22-26.33 0-16.38-9.18-26.18-22.19-26.18s-22 9.65-22 26.18c-.01 16.68 9.18 26.33 22.19 26.33zM437.29 538.88c0 16.68 9.18 26.33 22.2 26.33 12.86 0 22-9.8 22-26.33s-9.18-26.18-22.2-26.18c-12.82 0-22 9.64-22 26.18zM1301.1 210.05c12.86 0 22-9.8 22-26.33 0-16.38-9.18-26.18-22.2-26.18-12.86 0-22 9.65-22 26.18 0 16.68 9.18 26.33 22.2 26.33zM798.33 361.3c0 16.68 9.18 26.33 22.19 26.33s22.05-9.8 22.05-26.33-9.19-26.18-22.2-26.18-22.04 9.65-22.04 26.18zM1276.28 332.21c-11.94 0-20.36 6.74-21.74 19.14h43c-.9-11.64-8.86-19.14-21.26-19.14zM1244.88 690.28c-12.86 0-22 9.64-22 26.18s9.18 26.33 22.19 26.33 22-9.8 22-26.33-9.18-26.18-22.19-26.18zM1131.33 565.21c12.86 0 22-9.8 22-26.33s-9.18-26.18-22.2-26.18c-12.86 0-22 9.64-22 26.18s9.18 26.33 22.2 26.33zM982.82 154.63c-11.94 0-20.36 6.74-21.74 19.14h43c-.9-11.64-8.86-19.14-21.26-19.14zM1022 690.28c-12.86 0-22 9.64-22 26.18s9.18 26.33 22.19 26.33 22.05-9.8 22.05-26.33-9.24-26.18-22.24-26.18zM878.67 512.7c-12.86 0-22 9.64-22 26.18s9.18 26.33 22.2 26.33c12.86 0 22-9.8 22-26.33s-9.18-26.18-22.2-26.18zM72.51 894c0 16.68 9.19 26.32 22.2 26.32s22.05-9.8 22.05-26.32-9.19-26.19-22.2-26.19-22.05 9.7-22.05 26.19zM470.84 1045.44c-12.85 0-22 9.64-22 26.17 0 16.7 9.19 26.33 22.2 26.33s22-9.79 22-26.33c-.04-16.38-9.18-26.17-22.2-26.17zM566.22 1223c-12.86 0-22 9.65-22 26.17 0 16.7 9.18 26.34 22.2 26.34 12.86 0 22-9.81 22-26.34s-9.18-26.17-22.2-26.17zM369.78 1223c-12.86 0-22 9.65-22 26.17 0 16.7 9.18 26.34 22.2 26.34 12.86 0 22-9.81 22-26.34s-9.18-26.17-22.2-26.17zM270.14 1071.61c0-16.38-9.18-26.17-22.2-26.17-12.86 0-22 9.64-22 26.17 0 16.7 9.18 26.33 22.2 26.33 12.86 0 22-9.79 22-26.33zM803 864.94c-11.94 0-20.36 6.75-21.74 19.14h43c-.93-11.63-8.89-19.14-21.26-19.14zM723.35 1045.44c-12.86 0-22.05 9.64-22.05 26.17 0 16.7 9.19 26.33 22.2 26.33s22-9.79 22-26.33c.04-16.38-9.14-26.17-22.15-26.17zM789.12 1223c-12.85 0-22 9.65-22 26.17 0 16.7 9.19 26.34 22.2 26.34s22-9.81 22-26.34-9.18-26.17-22.2-26.17zM51.5 1045.44c-12.86 0-22 9.64-22 26.17 0 16.7 9.18 26.33 22.2 26.33 12.86 0 22-9.79 22-26.33 0-16.38-9.18-26.17-22.2-26.17zM148.68 387.63c12.86 0 22-9.8 22-26.33s-9.19-26.18-22.2-26.18-22 9.65-22 26.18 9.19 26.33 22.2 26.33zM51.66 210.05c12.86 0 22-9.8 22-26.33 0-16.38-9.18-26.18-22.2-26.18-12.86 0-22 9.65-22 26.18 0 16.68 9.18 26.33 22.2 26.33zM274.56 210.05c12.86 0 22-9.8 22-26.33 0-16.38-9.18-26.18-22.2-26.18-12.85 0-22 9.65-22 26.18 0 16.68 9.19 26.33 22.2 26.33zM345.12 387.63c12.86 0 22-9.8 22-26.33S358 335.12 345 335.12s-22.05 9.65-22.05 26.18 9.16 26.33 22.17 26.33zM51.66 742.79c12.86 0 22-9.8 22-26.33s-9.18-26.18-22.2-26.18c-12.86 0-22 9.64-22 26.18s9.18 26.33 22.2 26.33zM51.66 1220.1c-11.94 0-20.36 6.74-21.74 19.14h43c-.92-11.64-8.86-19.14-21.26-19.14zM631.14-3.81h43a22.31 22.31 0 0 0-2.83-9.57h-37.13a23.72 23.72 0 0 0-3.04 9.57z" class="f43d9859-9582-486b-8614-5d609356fb55" transform="translate(0 13.38)"/>
    <path d="M544.8 0v15.23L557.08 0H544.8z" class="f43d9859-9582-486b-8614-5d609356fb55"/>
    <path d="M1121.1 867.85c-12.86 0-22 9.66-22 26.19 0 16.68 9.19 26.32 22.2 26.32 12.86 0 22-9.8 22-26.32s-9.19-26.19-22.2-26.19zM825.54 690.28c-12.86 0-22 9.64-22 26.18s9.18 26.33 22.2 26.33c12.85 0 22-9.8 22-26.33s-9.19-26.18-22.2-26.18zM174.92 6.14c0 16.69 9.19 26.33 22.2 26.33 12.86 0 22-9.8 22-26.33 0-8.37-2.4-15-6.48-19.52h-31.3c-4.03 4.48-6.42 11.1-6.42 19.52zM949 6.14c0 16.69 9.18 26.33 22.2 26.33 12.86 0 22-9.8 22-26.33 0-8.37-2.4-15-6.48-19.52h-31.34C951.35-8.9 949-2.28 949 6.14zM2324.55 512.7c-12.86 0-22 9.64-22 26.18s9.18 26.33 22.2 26.33c12.86 0 22-9.8 22-26.33s-9.18-26.18-22.2-26.18zM2467.86 690.28c-12.86 0-22 9.64-22 26.18s9.18 26.33 22.19 26.33c12.86 0 22-9.8 22-26.33s-9.18-26.18-22.19-26.18zM2077-3.81h43a22.31 22.31 0 0 0-2.83-9.57h-37.13a23.72 23.72 0 0 0-3.04 9.57z" class="f43d9859-9582-486b-8614-5d609356fb55" transform="translate(0 13.38)"/>
    <path d="M2208.59 0h-28.27l14.18 37.89L2208.59 0z" class="f43d9859-9582-486b-8614-5d609356fb55"/>
    <path d="M2428.7 154.63c-11.94 0-20.36 6.74-21.74 19.14h43c-.9-11.64-8.86-19.14-21.26-19.14zM2394.84 6.14c0 16.69 9.18 26.33 22.2 26.33 12.85 0 22-9.8 22-26.33 0-8.37-2.4-15-6.49-19.52h-31.33c-3.99 4.48-6.38 11.1-6.38 19.52zM1620.8 6.14c0 16.69 9.19 26.33 22.2 26.33 12.86 0 22-9.8 22-26.33 0-8.37-2.4-15-6.48-19.52h-31.33c-4 4.48-6.39 11.1-6.39 19.52zM1368.3 6.14c0 16.69 9.18 26.33 22.2 26.33 12.86 0 22-9.8 22-26.33 0-8.37-2.4-15-6.48-19.52h-31.34c-3.99 4.48-6.38 11.1-6.38 19.52z" class="f43d9859-9582-486b-8614-5d609356fb55" transform="translate(0 13.38)"/>
    <path d="M1990.68 0v15.23L2002.96 0h-12.28z" class="f43d9859-9582-486b-8614-5d609356fb55"/>
    <path d="M1145.4 6.14c0 16.69 9.18 26.33 22.2 26.33 12.85 0 22-9.8 22-26.33 0-8.37-2.4-15-6.49-19.52h-31.33c-3.99 4.48-6.38 11.1-6.38 19.52z" class="f43d9859-9582-486b-8614-5d609356fb55" transform="translate(0 13.38)"/>
    <path d="M762.71 0h-28.28l14.19 37.89L762.71 0z" class="f43d9859-9582-486b-8614-5d609356fb55"/>
    <path d="M1791 387.63c12.86 0 22-9.8 22-26.33s-9.18-26.18-22.19-26.18c-12.86 0-22 9.65-22 26.18s9.19 26.33 22.19 26.33zM1518.39 894c0 16.68 9.19 26.32 22.2 26.32s22.05-9.8 22.05-26.32-9.19-26.19-22.2-26.19-22.05 9.7-22.05 26.19zM1720.44 210.05c12.86 0 22-9.8 22-26.33 0-16.38-9.18-26.18-22.2-26.18-12.86 0-22 9.65-22 26.18 0 16.68 9.18 26.33 22.2 26.33zM1594.56 387.63c12.86 0 22-9.8 22-26.33s-9.18-26.18-22.19-26.18-22.05 9.65-22.05 26.18 9.23 26.33 22.24 26.33zM1587.09 509.79c-11.95 0-20.36 6.74-21.74 19.14h43c-.9-11.64-8.86-19.14-21.26-19.14zM1497.54 742.79c12.86 0 22-9.8 22-26.33s-9.18-26.18-22.2-26.18c-12.86 0-22 9.64-22 26.18s9.18 26.33 22.2 26.33zM1497.54 210.05c12.86 0 22-9.8 22-26.33 0-16.38-9.18-26.18-22.2-26.18-12.86 0-22 9.65-22 26.18 0 16.68 9.18 26.33 22.2 26.33zM1953.29 687.37c-11.94 0-20.36 6.74-21.73 19.14h43c-.91-11.64-8.87-19.14-21.27-19.14zM2244.2 361.3c0 16.68 9.19 26.33 22.2 26.33 12.86 0 22-9.8 22-26.33s-9.19-26.18-22.2-26.18c-12.81 0-22 9.65-22 26.18zM1991.7 361.3c0 16.68 9.19 26.33 22.2 26.33 12.86 0 22-9.8 22-26.33s-9.19-26.18-22.2-26.18c-12.81 0-22 9.65-22 26.18zM2101.81 565.21c12.85 0 22-9.8 22-26.33s-9.19-26.18-22.2-26.18-22 9.64-22 26.18 9.18 26.33 22.2 26.33zM1972.94 210.05c12.86 0 22-9.8 22-26.33 0-16.38-9.18-26.18-22.19-26.18-12.86 0-22 9.65-22 26.18-.01 16.68 9.18 26.33 22.19 26.33zM1792.94 867.85c-12.86 0-22 9.66-22 26.19 0 16.68 9.18 26.32 22.19 26.32s22.05-9.8 22.05-26.32-9.18-26.19-22.24-26.19zM1883.17 538.88c0 16.68 9.18 26.33 22.2 26.33 12.85 0 22-9.8 22-26.33s-9.19-26.18-22.2-26.18-22 9.64-22 26.18zM1041.63 1223c-12.86 0-22.05 9.65-22.05 26.17 0 16.7 9.19 26.34 22.2 26.34s22-9.81 22-26.34-9.14-26.17-22.15-26.17zM2012.1 1223c-12.86 0-22 9.65-22 26.17 0 16.7 9.18 26.34 22.2 26.34 12.86 0 22-9.81 22-26.34s-9.18-26.17-22.2-26.17zM2169.22 1045.44c-12.85 0-22 9.64-22 26.17 0 16.7 9.19 26.33 22.2 26.33 12.86 0 22-9.79 22-26.33 0-16.38-9.18-26.17-22.2-26.17zM1497.54 1220.1c-11.94 0-20.36 6.74-21.74 19.14h43c-.9-11.64-8.86-19.14-21.26-19.14zM1497.38 1045.44c-12.86 0-22 9.64-22 26.17 0 16.7 9.18 26.33 22.2 26.33 12.86 0 22-9.79 22-26.33 0-16.38-9.18-26.17-22.2-26.17zM2235 1223c-12.86 0-22 9.65-22 26.17 0 16.7 9.18 26.34 22.2 26.34 12.86 0 22-9.81 22-26.34S2248 1223 2235 1223zM1916.72 1045.44c-12.86 0-22 9.64-22 26.17 0 16.7 9.18 26.33 22.2 26.33 12.86 0 22-9.79 22-26.33 0-16.38-9.18-26.17-22.2-26.17zM1716 1071.61c0-16.38-9.18-26.17-22.2-26.17-12.86 0-22 9.64-22 26.17 0 16.7 9.18 26.33 22.2 26.33 12.84 0 22-9.79 22-26.33zM1179.26 1042.53c-11.94 0-20.36 6.74-21.74 19.14h43c-.9-11.67-8.86-19.14-21.26-19.14zM1815.66 1223c-12.86 0-22 9.65-22 26.17 0 16.7 9.18 26.34 22.2 26.34 12.86 0 22-9.81 22-26.34s-9.18-26.17-22.2-26.17zM2248.85 864.94c-11.94 0-20.36 6.75-21.74 19.14h43c-.9-11.63-8.86-19.14-21.26-19.14zM2487.51 1223c-12.86 0-22.05 9.65-22.05 26.17 0 16.7 9.19 26.34 22.2 26.34s22-9.81 22-26.34-9.14-26.17-22.15-26.17z" class="f43d9859-9582-486b-8614-5d609356fb55" transform="translate(0 13.38)"/>
    <path d="M2501.75-13.38c.82 16.83 55.39 1.72 55.39 36.51 0 17.45-15.46 28.32-39.95 28.32-21.74 0-37.36-9.64-41.64-23.88l21.12-3.52c3.22 6.89 10.72 10.87 20.67 10.87 10.41 0 16.38-3.52 16.38-9.64 0-17.46-55.26-3.22-55-38.28v-.38h-17.2v63.15h-23.27V35.53c-4.28 10.11-15.61 16.38-27.86 16.38-21.74 0-38.88-16.38-38.88-45.77a60 60 0 0 1 3-19.52h-15.41a55.15 55.15 0 0 1 1.57 5.9l-20.36 3.21a26.25 26.25 0 0 0-4.89-9.11h-31.09c-4.16 4.62-6.58 11.38-6.58 19.52 0 15.62 8.88 26 21.9 26 9.79 0 17.45-5.81 20.36-15.61l20.51 3.22c-4 20.35-19.29 31.84-41.95 31.84-25.41 0-44.08-18.68-44.08-45.47a50.13 50.13 0 0 1 3.78-19.52h-45.18l-37.89 91.62h-25.5l12.4-28.78-26.17-62.84h-17.41c2.62 7.14 3.63 15.52 2.79 24.88h-64.75c.46 14.23 9 22.5 23 22.5 9.95 0 16.53-3.67 19.75-10.87l21.28 2.6c-6.28 17-20.52 25.88-41.64 25.88-27.56 0-45.62-18.07-45.62-45.47a50.56 50.56 0 0 1 3.67-19.5h-27.16l-15.43 17.84 38.27 45.46h-28.47l-33.53-42.25v42.25h-23.27v-63.3h-20.55v63.3h-23.11v-63.3h-19.45a100 100 0 0 1 1.27 17.07v46.23h-23.27V5.83c0-8.88-1.06-15.12-3.48-19.21h-26.54c-2.53 4-3.66 10.07-3.66 18.45v44.85h-23.26V6c0-9.09-1-15.33-3.3-19.37h-25.87c-2.78 4.27-4 10.86-4 20.13v43.16h-23.27v-63.3h-81.32v63.15h-23.27V35.53c-4.29 10.11-15.62 16.38-27.87 16.38-21.73 0-38.88-16.38-38.88-45.77a60 60 0 0 1 3-19.52h-19.38a77.2 77.2 0 0 1 1.34 15.08v48.22h-23.27V3.84c0-7.7-1.39-13.37-4.24-17.22h-29.11c-3.09 4.17-4.46 10.41-4.46 18.6v44.7h-23.27v-63.3h-19.94v63.3h-23.12v-63.3H1435v63.15h-23.27V35.53c-4.28 10.11-15.61 16.38-27.86 16.38-21.73 0-38.88-16.38-38.88-45.77a60 60 0 0 1 3-19.52h-19.57v63.3H1305v-63.3h-31.82l-27.36 63.3H1224l27.45-63.3h-39.27v63.15h-23.27V35.53c-4.28 10.11-15.61 16.38-27.86 16.38-21.74 0-38.88-16.38-38.88-45.77a60 60 0 0 1 3-19.52h-69.26c.82 16.83 55.39 1.72 55.39 36.51 0 17.45-15.46 28.32-40 28.32-21.74 0-37.36-9.64-41.64-23.88l21.12-3.52c3.22 6.89 10.72 10.87 20.67 10.87 10.41 0 16.38-3.52 16.38-9.64 0-17.46-55.26-3.22-55-38.28v-.38h-17.2v63.15h-23.19V35.53c-4.29 10.11-15.62 16.38-27.87 16.38-21.73 0-38.88-16.38-38.88-45.77a60 60 0 0 1 3-19.52h-15.41a52.89 52.89 0 0 1 1.57 5.9l-20.36 3.21a26.09 26.09 0 0 0-4.89-9.11h-31.09c-4.16 4.62-6.58 11.38-6.58 19.52 0 15.62 8.88 26 21.9 26 9.79 0 17.45-5.81 20.36-15.61l20.51 3.22c-4 20.35-19.29 31.84-42 31.84-25.41 0-44.08-18.68-44.08-45.47a50.13 50.13 0 0 1 3.78-19.52h-45.13l-37.89 91.64h-25.56l12.4-28.78L710-13.38h-17.4a57.06 57.06 0 0 1 2.79 24.88h-64.71c.46 14.23 9 22.5 23 22.5 10 0 16.53-3.67 19.75-10.87l21.28 2.6c-6.28 17-20.52 25.88-41.64 25.88-27.56 0-45.62-18.07-45.62-45.47a50.56 50.56 0 0 1 3.72-19.52H584L568.53 4.46l38.27 45.46h-28.47L544.8 7.67v42.25h-23.27v-63.3H501v63.3h-23.13v-63.3h-19.45a100 100 0 0 1 1.27 17.07v46.23h-23.27V5.83c0-8.88-1.06-15.12-3.47-19.21h-26.54c-2.53 4-3.66 10.07-3.66 18.45v44.85h-23.27V6c0-9.09-1-15.33-3.31-19.37h-25.86c-2.79 4.27-4.05 10.86-4.05 20.13v43.16H323v-63.3h-81.33v63.15H218.4V35.53c-4.29 10.11-15.62 16.38-27.86 16.38-21.74 0-38.89-16.38-38.89-45.77a60.27 60.27 0 0 1 3-19.52h-19.33a77.2 77.2 0 0 1 1.34 15.08v48.22h-23.27V3.84c0-7.7-1.39-13.37-4.25-17.22H80C77-9.21 75.58-3 75.58 5.22v44.7H52.31v-63.3H32.37v63.3H9.25v-63.3H0v1411.07h9.25V1383h23.27v14.4c3.06-9.81 13-16.08 25.41-16.08 13.41 0 20.7 4.48 25.47 16.38h1.89c4.67-9.42 14.58-16.38 29.74-16.38 13.83 0 22.52 5 27.05 16.38h22V1383h23.12v14.7h20.6v-43.17h23.27v43.17h20l11.84-14.7h28.32l-12.72 14.7h24.4c7.92-10.28 20.43-16.38 35.62-16.38 15.74 0 27.94 6 35.35 16.38h18.44l-6.12-14.7h25.41l5.5 14.7h35.42L458 1383h25.56l-6.07 14.7h46.77c7.89-10.26 20.22-16.38 34.76-16.38 16.81 0 28.89 5.44 36 16.38h24.55c7-10.73 18.22-16.38 31.11-16.38 12.33 0 23.45 6.06 27.94 16.38h.07V1383H702v14.7h19.71c5.28-10 18.38-16.24 35.13-16.24 15.33 0 29.33 6.07 35.84 16.24H816c7-10.73 18.22-16.38 31.1-16.38 12.34 0 23.46 6.06 28 16.38h.07V1383h23.27v14.7h43.42l16.47-38H980l-16.42 38h27.72v-43.17h23.42v43.17h24.2c7-10.73 18.22-16.38 31.1-16.38 12.34 0 23.46 6.06 28 16.38h.07V1383h23.27v14.7h20.09V1383h23.11v14.7h19.94V1383h23.27v14.08c4-9.64 13.78-15.76 27.1-15.76 14.84 0 24.5 5.41 29.6 16.38h27c7-10.73 18.22-16.38 31.11-16.38 12.34 0 23.45 6.06 27.94 16.38h.07V1383h23.27v14.7h81.32V1383h23.27v14.4c3.06-9.81 13-16.08 25.41-16.08 13.41 0 20.7 4.48 25.47 16.38h1.89c4.67-9.42 14.57-16.38 29.74-16.38 13.83 0 22.52 5 27 16.38h22V1383h23.12v14.7h20.55v-43.17H1677v43.17h20l11.84-14.7h28.32l-12.71 14.7h24.39c7.92-10.28 20.43-16.38 35.62-16.38 15.74 0 27.93 6 35.35 16.38h18.44l-6.12-14.7h25.41l5.5 14.7h35.43l5.46-14.7h25.56l-6.07 14.7h46.77c7.89-10.26 20.22-16.38 34.76-16.38 16.81 0 28.89 5.44 36 16.38h24.55c7-10.73 18.22-16.38 31.1-16.38 12.34 0 23.46 6.06 28 16.38h.07V1383h23.27v14.7h19.71c5.28-10 18.38-16.24 35.13-16.24 15.33 0 29.33 6.07 35.84 16.24h23.37c7-10.73 18.22-16.38 31.1-16.38 12.34 0 23.46 6.06 27.95 16.38h.07V1383h23.27v14.7h43.43l16.46-38h21.74l-16.41 38h27.67v-43.17h23.42v43.17h24.2c7-10.73 18.22-16.38 31.1-16.38 12.34 0 23.46 6.06 27.95 16.38h.07V1383h23.27v14.7H2600V-13.38zm89.89 230.47c0 7.66-6.13 11.79-13.17 11.79-7.8 0-13.32-4.13-13.32-11.79s5.52-11.79 13.32-11.79c7.04 0 13.17 4.14 13.17 11.79zm-32.85 89.1c-7.66 0-13.32-4.29-13.32-11.79s5.66-11.79 13.32-11.79c7.19 0 13.31 4.14 13.31 11.79s-6.1 11.79-13.31 11.79zm11.48 11.33v87.56h-23.12v-87.56zm-69.1-177.58l23.27 62.15 23.11-62.15h25.57l-47.92 115.88h-25.56L2512 227l-36.28-87.1zm-3.12 175.89c21.89 0 30.93 12.56 30.93 43v46.23h-23.27V361c0-18.52-4.59-25.56-16.54-25.56-12.24 0-17.14 7.35-17.14 24.8v44.85h-23.27v-43.94c0-19-4.29-25.57-16.07-25.57-12.1 0-17.15 7.81-17.15 26.33v43.17h-23.27v-87.56h23.27v14.39c3.06-9.8 13-16.08 25.41-16.08 14.24 0 21.59 5.05 26.33 18.68 4.14-10.51 14.39-18.68 30.77-18.68zm-36.62 446.39c-21.74 0-38.88-16.37-38.88-45.76s17-45.47 38.73-45.47c12.4 0 23.57 6.12 28 16.53v-14.85h23.27v87.42h-23.27v-14.24c-4.28 10.15-15.6 16.37-27.85 16.37zm32.05-179.56v-46.08c0-16.07-6-23.42-19-23.42-13.48 0-18.83 8.57-18.83 24.8v44.7h-23.25v-87.57h23.27v14.09c4-9.65 13.77-15.77 27.09-15.77 23.42 0 34 13.47 34 41v48.22zm-197.57 267.6h25.41l23.27 62.15 23.12-62.15h25.56l-47.91 115.88h-25.57l12.4-28.79zm115.77-116.81c0 17.46-15.46 28.32-39.95 28.32-21.74 0-37.36-9.65-41.64-23.88l21.12-3.52c3.22 6.89 10.72 10.87 20.67 10.87 10.41 0 16.38-3.52 16.38-9.65 0-17.45-55.26-3.21-55-38.27.31-15.77 15.92-26.18 37.66-26.18 18.06 0 34.29 8.42 38.58 22.05l-20.82 3.67c-2.6-6-9.34-9.49-17.15-9.49-9.64 0-15.31 3.37-15.31 9.18.04 17.45 55.46 1.84 55.46 36.9zm-42.43-150.94H2346v-14.24c-4.28 10.1-15.61 16.38-27.86 16.38-21.73 0-38.88-16.38-38.88-45.77s17-45.47 38.73-45.47c12.4 0 23.58 6.12 28 16.53v-14.85h23.27zm29.38 333.11c7 0 13.16 4.14 13.16 11.79s-6.12 11.78-13.16 11.78c-7.81 0-13.32-4.13-13.32-11.78s5.51-11.79 13.32-11.79zm-9.29-333v-87.53h23.12v87.57zm11.66-98.85c-7.66 0-13.32-4.29-13.32-11.79 0-7.65 5.66-11.79 13.32-11.79 7.19 0 13.31 4.14 13.31 11.79-.02 7.5-6.14 11.79-13.31 11.79zm27.1-345.52c28.94 0 45.93 20.21 43.17 50.83h-64.77c.46 14.23 9 22.5 23 22.5 9.95 0 16.54-3.67 19.75-10.87l21.28 2.6c-6.28 17-20.51 25.88-41.64 25.88-27.56 0-45.62-18.07-45.62-45.47-.04-26.94 18.33-45.47 44.81-45.47zm-130.72-26.79h23.26v68l31.85-39.49h28.32L2344.35 182l38.27 45.47h-28.47l-33.53-42.25v42.28h-23.26zm-9.68 220.9v-14.84h23.3v87.41h-23.27v-14.24c-4.29 10.1-15.61 16.38-27.86 16.38-21.74 0-38.88-16.38-38.88-45.77s17-45.47 38.73-45.47c12.35 0 23.52 6.17 27.96 16.53zm-25 134.26v116h-23.42v-116zm-88.43 275.86c9.8 0 17.46-5.82 20.36-15.61l20.52 3.21c-4 20.37-19.29 31.84-41.95 31.84-25.41 0-44.09-18.67-44.09-45.46s18.65-45.46 44.06-45.46c23.42 0 37.66 10.56 42.1 31.84l-20.36 3.22c-3.37-10.41-10.26-15.77-20.67-15.77-13 0-21.89 10.56-21.89 26.18s8.88 26.01 21.89 26.01zm-1.62 107.78h28.32l-36.43 42.09 38.27 45.46h-28.51l-33.52-42.25v42.25h-23.27v-116h23.27v68zm-.65-534.43c23.42 0 34 13.47 34 41v48.22h-23.27V359c0-16.07-6-23.42-19-23.42-13.47 0-18.83 8.57-18.83 24.8v44.7h-23.27v-87.56h23.27v14.08c3.94-9.6 13.74-15.77 27.1-15.77zm8.11 266.83h-21.9l48.07-110.83H2228zm73.62-355.16v-87.56h23.11v87.56zm24.95-110.68c0 7.5-6.12 11.79-13.32 11.79-7.65 0-13.32-4.29-13.32-11.79s5.67-11.79 13.32-11.79c7.16-.03 13.28 4.14 13.28 11.79zm-30.11-89.1c7 0 13.17 4.14 13.17 11.79s-6.13 11.79-13.17 11.79c-7.81 0-13.32-4.13-13.32-11.79s5.47-11.79 13.28-11.79zm-149.76 112.22h23.27v14.39c3.06-9.8 13-16.08 25.41-16.08 14.24 0 21.58 5.05 26.33 18.68 4.13-10.56 14.39-18.68 30.77-18.68 21.89 0 30.92 12.56 30.92 43v46.25h-23.27v-44.09c0-18.52-4.59-25.56-16.53-25.56-12.25 0-17.14 7.35-17.14 24.8v44.85h-23.27v-43.93c0-19-4.29-25.57-16.08-25.57-12.09 0-17.14 7.81-17.14 26.33v43.17h-23.27zm-8.64 142.67c7.2 0 13.32 4.14 13.32 11.79s-6.12 11.79-13.32 11.79c-7.65 0-13.32-4.29-13.32-11.79s5.67-11.79 13.32-11.79zm11.48 34.91v87.56h-23.11v-87.56zm-6.58 175.89c12.4 0 23.57 6.12 28 16.53v-14.85h23.27v87.42h-23.27v-14.24c-4.28 10.1-15.61 16.38-27.86 16.38-21.74 0-38.88-16.38-38.88-45.77s17-45.47 38.74-45.47zm-9.59 345.52c-7.66 0-13.32-4.29-13.32-11.79 0-7.66 5.66-11.8 13.32-11.8 7.19 0 13.31 4.14 13.31 11.8 0 7.5-6.12 11.79-13.31 11.79zm11.52 11.33v87.55h-23.12v-87.55zm-81.09 17.91c-12.25 0-17.15 7.35-17.15 24.79v44.85h-23.27v-43.92c0-19-4.29-25.58-16.07-25.58-12.1 0-17.15 7.81-17.15 26.34v43.16H1919v-87.55h23.27v14.39c3.06-9.81 13-16.09 25.41-16.09 14.24 0 21.59 5.06 26.33 18.68 4.14-10.55 14.39-18.68 30.77-18.68 21.9 0 30.93 12.56 30.93 43v46.23h-23.31v-44.07c0-18.52-4.59-25.55-16.53-25.55zm-22.72 148.34c-7.66 0-13.32-4.3-13.32-11.8 0-7.65 5.66-11.78 13.32-11.78 7.19 0 13.32 4.13 13.32 11.78-.04 7.5-6.17 11.8-13.36 11.8zm11.48 11.32v87.57h-23.12v-87.57zm-52-356.84c28.94 0 45.93 20.21 43.17 50.82h-64.74c.46 14.24 9 22.51 23 22.51 10 0 16.53-3.68 19.75-10.87l21.28 2.6c-6.28 17-20.52 25.87-41.64 25.87-27.56 0-45.62-18.06-45.62-45.46-.04-26.95 18.33-45.46 44.81-45.46zm-.82-265.91h-23.42V289h23.42zm15.23 114.66c.31-15.77 15.92-26.18 37.66-26.18 18.07 0 34.29 8.42 38.58 22.05l-20.82 3.67c-2.6-6-9.34-9.49-17.15-9.49-9.64 0-15.3 3.37-15.3 9.19 0 17.45 55.41 1.83 55.41 36.89 0 17.45-15.46 28.32-40 28.32-21.74 0-37.36-9.64-41.64-23.88l21.12-3.52c3.22 6.89 10.72 10.87 20.67 10.87 10.41 0 16.38-3.52 16.38-9.65.06-17.45-55.2-3.21-54.9-38.27zm82.71 268.82h-25.56l12.4-28.78-36.28-87.11h25.41l23.24 62.16 23.11-62.16h25.57zm39.95-38.73c0-7.66 5.51-11.79 13.32-11.79 7 0 13.17 4.13 13.17 11.79s-6.13 11.78-13.17 11.78c-7.8 0-13.31-4.13-13.31-11.78zm-54.57-417.47v-14.84h23.27v87.41h-23.27v-14.24c-4.29 10.1-15.62 16.38-27.86 16.38-21.74 0-38.89-16.38-38.89-45.77s17-45.47 38.73-45.47c12.41 0 23.59 6.17 28.03 16.53zm-69-194.11c12.4 0 23.58 6.13 28 16.54v-14.85h23.27v87.41h-23.27v-14.24c-4.29 10.1-15.62 16.38-27.86 16.38-21.74 0-38.89-16.38-38.89-45.77s17.04-45.47 38.78-45.47zm-39.56 371.69v-14.85h23.27v87.42h-23.27v-14.24c-4.28 10.1-15.61 16.38-27.86 16.38-21.74 0-38.88-16.38-38.88-45.77s17-45.47 38.73-45.47c12.4 0 23.6 6.12 28.04 16.53zm-112.24 427.73v-14.24c-4.28 10.11-15.61 16.38-27.86 16.38-21.74 0-38.88-16.38-38.88-45.77s17-45.48 38.73-45.48c12.4 0 23.57 6.13 28 16.54v-14.84h23.27v87.41zm5.78 66.89l-47.91 110.84h-21.9l48.07-110.84zm-99.84-314c-12.25 0-17.15 7.34-17.15 24.8v44.84h-23.27v-43.9c0-19-4.28-25.56-16.07-25.56-12.09 0-17.15 7.8-17.15 26.33v43.16h-23.26v-87.56h23.26v14.39c3.07-9.79 13-16.07 25.42-16.07 14.23 0 21.58 5 26.33 18.68 4.13-10.57 14.39-18.68 30.77-18.68 21.89 0 30.92 12.55 30.92 43v46.22h-23.27v-44.06c0-18.52-4.59-25.56-16.53-25.56zm-29.93 177.72c-13.47 0-18.83 8.58-18.83 24.8v44.7h-23.27v-87.52h23.27v14.07c4-9.64 13.78-15.77 27.1-15.77 23.42 0 34 13.49 34 41v48.22h-23.27v-46.05c-.02-16.06-5.99-23.42-19-23.42zm-102.53-301.54c10 0 16.53-3.67 19.75-10.87l21.28 2.6c-6.28 17-20.52 25.87-41.64 25.87-27.56 0-45.62-18.06-45.62-45.46 0-26.95 18.37-45.47 44.85-45.47 28.94 0 45.93 20.21 43.17 50.82h-64.75c.46 14.24 9.03 22.51 22.96 22.51zm29 272.19c-7.65 0-13.32-4.29-13.32-11.79 0-7.66 5.67-11.8 13.32-11.8 7.2 0 13.32 4.14 13.32 11.8.01 7.5-6.11 11.79-13.31 11.79zm11.48 11.33v87.55h-23.11v-87.55zm-66.47 14.84v-14.84h23.27v87.41h-23.27v-14.24c-4.29 10.11-15.61 16.38-27.86 16.38-21.74 0-38.88-16.38-38.88-45.77s17-45.48 38.73-45.48c12.41 0 23.58 6.13 28.02 16.54zm15.3 224.43c3.22 6.89 10.72 10.87 20.67 10.87 10.41 0 16.38-3.52 16.38-9.64 0-17.46-55.26-3.22-55-38.29.31-15.76 15.92-26.16 37.66-26.16 18.07 0 34.29 8.41 38.58 22l-20.82 3.68c-2.6-6-9.34-9.49-17.15-9.49-9.64 0-15.3 3.37-15.3 9.18 0 17.46 55.41 1.85 55.41 36.89 0 17.46-15.46 28.33-40 28.33-21.74 0-37.36-9.64-41.64-23.88zM1683.59 611H1658l12.4-28.78-36.28-87.11h25.41l23.27 62.16 23.11-62.16h25.57zm53.27-50.52c7 0 13.17 4.14 13.17 11.79S1743.9 584 1736.86 584c-7.81 0-13.32-4.14-13.32-11.79s5.51-11.75 13.32-11.75zm71.14 4.42c9.79 0 17.45-5.81 20.36-15.61l20.51 3.21c-4 20.36-19.29 31.84-42 31.84-25.41 0-44.08-18.67-44.08-45.46s18.67-45.47 44.08-45.47c23.43 0 37.66 10.56 42.1 31.84l-20.36 3.22c-3.37-10.41-10.25-15.77-20.66-15.77-13 0-21.9 10.56-21.9 26.18S1795 564.9 1808 564.9zm-18.12 96.45c-7.65 0-13.32-4.29-13.32-11.79 0-7.66 5.67-11.79 13.32-11.79 7.19 0 13.32 4.13 13.32 11.79.04 7.5-6.09 11.79-13.28 11.79zm11.48 11.32v87.56h-23.11v-87.56zm30 326.68h23.42v116.05h-23.42zM1845.22 718v42.24H1822v-116h23.27v68l31.84-39.5h28.32L1869 714.77l38.27 45.46h-28.47zm24-312.91h-21.89l48.07-110.83h21.74zm-41.13-265.14h23.27V154c4-9.64 13.77-15.77 27.09-15.77 23.43 0 34 13.47 34 41v48.27h-23.27v-46.08c0-16.07-6-23.42-19-23.42-13.48 0-18.83 8.57-18.83 24.8v44.7h-23.27zM1796.71 105c7.19 0 13.32 4.14 13.32 11.79s-6.13 11.79-13.32 11.79c-7.66 0-13.32-4.29-13.32-11.79s5.66-11.79 13.32-11.79zm11.48 34.91v87.59h-23.12v-87.56zm-23.93 175.89c12.4 0 23.58 6.13 28 16.53v-14.81h23.27v87.41h-23.27v-14.24c-4.29 10.1-15.62 16.38-27.86 16.38-21.74 0-38.89-16.38-38.89-45.77s17.02-45.47 38.75-45.47zm-70.56-177.55c12.4 0 23.58 6.13 28 16.54v-14.85h23.3v87.41h-23.26v-14.24c-4.29 10.1-15.62 16.38-27.87 16.38-21.73 0-38.88-16.38-38.88-45.77s17.01-45.47 38.71-45.47zM1694 316c18.06 0 34.29 8.43 38.57 22l-20.82 3.67c-2.6-6-9.33-9.49-17.14-9.49-9.65 0-15.31 3.37-15.31 9.19 0 17.45 55.42 1.83 55.42 36.89 0 17.45-15.46 28.32-40 28.32-21.74 0-37.35-9.64-41.64-23.88l21.13-3.52c3.21 6.89 10.71 10.87 20.66 10.87 10.41 0 16.38-3.52 16.38-9.65 0-17.45-55.26-3.21-55-38.27.34-15.73 15.96-26.13 37.75-26.13zm-59-204.52h23.42v116H1635zm-33 5.21h21.74L1575.8 227.5h-21.89zm-14.15 199.16c12.4 0 23.58 6.13 28 16.53v-14.86h23.27v87.41h-23.27v-14.24c-4.29 10.1-15.62 16.38-27.86 16.38-21.74 0-38.89-16.38-38.89-45.77s16.99-45.47 38.72-45.47zm-97-177.58c12.4 0 23.58 6.13 28 16.54v-14.87h23.26v87.41h-23.26v-14.24c-4.29 10.1-15.62 16.38-27.87 16.38-21.73 0-38.88-16.38-38.88-45.77s16.96-45.47 38.7-45.47zm20 356.84h28.33l-36.44 42.1 38.26 45.45h-28.47L1479 540.41v42.25h-23.27v-116H1479v68zm-14.69-179.26c23.42 0 37.66 10.57 42.1 31.84l-20.36 3.22c-3.37-10.41-10.26-15.77-20.67-15.77-13 0-21.89 10.56-21.89 26.18s8.88 26 21.89 26c9.8 0 17.45-5.81 20.36-15.61l20.51 3.21c-4 20.36-19.28 31.85-41.94 31.85-25.41 0-44.09-18.68-44.09-45.47s18.68-45.47 44.09-45.47zM1490.8 671c12.4 0 23.58 6.12 28 16.53v-14.86h23.26v87.42h-23.26v-14.24c-4.29 10.11-15.62 16.37-27.87 16.37-21.73 0-38.88-16.37-38.88-45.76S1469.06 671 1490.8 671zm-12.25 150.79v116h-23.42v-116zm-157.24-160.44c-7.66 0-13.32-4.29-13.32-11.79 0-7.66 5.66-11.79 13.32-11.79 7.19 0 13.31 4.13 13.31 11.79 0 7.5-6.12 11.79-13.31 11.79zm11.48 11.32v87.56h-23.12v-87.56zm-19.1-90v-43.95c0-19-4.29-25.56-16.08-25.56-12.09 0-17.14 7.81-17.14 26.33v43.17h-23.27v-87.57h23.27v14.39c3.06-9.79 13-16.07 25.41-16.07 14.24 0 21.58 5 26.33 18.68 4.13-10.56 14.39-18.68 30.77-18.68 21.89 0 30.92 12.55 30.92 43v46.23h-23.27v-44.07c0-18.52-4.59-25.56-16.53-25.56-12.25 0-17.15 7.34-17.15 24.8v44.85zm-87.37 445.17h25.41L1275 1090l23.11-62.15h25.57l-47.92 115.88h-25.56l12.4-28.77zm-111.65-88c-21.74 0-38.89-16.38-38.89-45.77s17-45.48 38.74-45.48c12.4 0 23.57 6.13 28 16.54v-14.87h23.27v87.41h-23.27v-14.24c-4.28 10.11-15.6 16.38-27.85 16.38zm-1.76-633.62c-7.66 0-13.32-4.29-13.32-11.79s5.66-11.79 13.32-11.79c7.19 0 13.31 4.14 13.31 11.79s-6.12 11.76-13.31 11.76zm11.48 11.33v87.56h-23.12v-87.59zm.2 175.89c12.4 0 23.58 6.12 28 16.53v-14.88h23.27v87.42h-23.27v-14.24c-4.29 10.1-15.62 16.38-27.87 16.38-21.73 0-38.88-16.38-38.88-45.77s17.01-45.47 38.75-45.47zm75.46-175.89h28.32l-36.43 42.09 38.27 45.47h-28.48l-33.52-42.25v42.25h-23.27V289h23.27v68zm-73.48 331.89h21.74l-47.92 110.82h-21.89zm33 110.82v-116H1183v116zM1183 874.9c.3-15.76 15.92-26.18 37.66-26.18 18.06 0 34.29 8.43 38.57 22l-20.82 3.67c-2.6-6-9.33-9.5-17.14-9.5-9.64 0-15.31 3.37-15.31 9.2 0 17.44 55.42 1.83 55.42 36.89 0 17.44-15.46 28.31-40 28.31-21.74 0-37.35-9.64-41.64-23.88l21.13-3.52c3.21 6.89 10.72 10.87 20.67 10.87 10.41 0 16.38-3.51 16.38-9.63.02-17.42-55.25-3.13-54.92-38.23zm55.47-112.68c-21.74 0-38.88-16.37-38.88-45.76s17-45.47 38.73-45.47c12.4 0 23.57 6.12 28 16.53v-14.85h23.27v87.42h-23.27v-14.24c-4.32 10.15-15.62 16.37-27.87 16.37zm114.28-89.55H1376v14.09c4-9.65 13.78-15.77 27.1-15.77 23.42 0 34 13.47 34 41v48.21h-23.27v-46.04c0-16.07-6-23.42-19-23.42-13.47 0-18.83 8.57-18.83 24.8v44.69h-23.26zm71-212.48c7.2 0 13.32 4.14 13.32 11.79 0 7.5-6.12 11.79-13.32 11.79-7.65 0-13.32-4.29-13.32-11.79-.04-7.65 5.63-11.79 13.28-11.79zm-11-65.52c0-7.65 5.51-11.79 13.32-11.79 7 0 13.16 4.14 13.16 11.79s-6.12 11.79-13.16 11.79c-7.82 0-13.33-4.13-13.33-11.79zm22.45 100.42v87.57h-23.11v-87.57zM1422.13 827h21.74L1396 937.81h-21.89zm-59.31-662.4c.31-15.76 15.92-26.17 37.66-26.17 18.07 0 34.29 8.42 38.58 22l-20.82 3.67c-2.6-6-9.34-9.49-17.15-9.49-9.64 0-15.3 3.37-15.3 9.19 0 17.45 55.41 1.83 55.41 36.89 0 17.45-15.46 28.32-40 28.32-21.74 0-37.35-9.64-41.64-23.88l21.12-3.52c3.22 6.89 10.72 10.87 20.67 10.87 10.41 0 16.38-3.52 16.38-9.65.05-17.43-55.21-3.19-54.91-38.25zm9.2 215.09l23.12-62.15h25.56l-47.91 115.86h-25.57l12.4-28.78-36.28-87.1h25.41zm-77.66-241.42c12.4 0 23.58 6.13 28 16.54v-14.87h23.26v87.41h-23.26v-14.24c-4.29 10.1-15.62 16.38-27.87 16.38-21.73 0-38.88-16.38-38.88-45.77s17.01-45.47 38.75-45.47zm-18.69 177.58c28.93 0 45.92 20.21 43.17 50.83h-64.76c.46 14.23 9 22.5 23 22.5 10 0 16.53-3.67 19.74-10.87l21.28 2.6c-6.27 17-20.51 25.88-41.64 25.88-27.55 0-45.62-18.07-45.62-45.47-.03-26.97 18.34-45.49 44.83-45.49zm-73-177.58c23.42 0 37.65 10.57 42.09 31.84l-20.36 3.22c-3.36-10.41-10.25-15.77-20.66-15.77-13 0-21.89 10.56-21.89 26.18s8.87 26 21.89 26c9.79 0 17.45-5.81 20.36-15.61l20.51 3.21c-4 20.36-19.29 31.85-41.94 31.85-25.42 0-44.09-18.68-44.09-45.47s18.7-45.47 44.12-45.47zm-56.94 78.84c0 7.66-6.13 11.79-13.17 11.79-7.8 0-13.32-4.13-13.32-11.79s5.52-11.79 13.32-11.79c7.07-.02 13.2 4.12 13.2 11.77zm-90.47-77.15l23.27 62.15 23.11-62.15h25.57l-47.92 115.88h-25.56l12.4-28.78-36.28-87.1zm-3.12 175.89c21.89 0 30.93 12.56 30.93 43v46.23h-23.27V361c0-18.52-4.59-25.56-16.54-25.56-12.24 0-17.14 7.35-17.14 24.8v44.85h-23.27v-43.94c0-19-4.29-25.57-16.07-25.57-12.1 0-17.15 7.81-17.15 26.33v43.17h-23.24v-87.56h23.27v14.39c3.06-9.8 13-16.08 25.41-16.08 14.24 0 21.59 5.05 26.33 18.68 4.14-10.51 14.39-18.68 30.77-18.68zm-36.62 446.39c-21.74 0-38.88-16.37-38.88-45.76s17-45.47 38.73-45.47c12.4 0 23.57 6.12 28 16.53v-14.87h23.27v87.42h-23.27v-14.24c-4.24 10.15-15.57 16.37-27.82 16.37zm32-179.56v-46.1c0-16.07-6-23.42-19-23.42-13.48 0-18.83 8.57-18.83 24.8v44.7h-23.17v-87.57h23.27v14.09c4-9.65 13.77-15.77 27.09-15.77 23.42 0 34 13.47 34 41v48.22zM850 850.26h25.41l23.27 62.15 23.12-62.15h25.56l-47.88 115.88h-25.57l12.4-28.79zm115.8-116.81c0 17.46-15.46 28.32-39.95 28.32-21.74 0-37.36-9.65-41.64-23.88l21.12-3.52c3.22 6.89 10.72 10.87 20.67 10.87 10.41 0 16.38-3.52 16.38-9.65 0-17.45-55.26-3.21-55-38.27.31-15.77 15.92-26.18 37.66-26.18 18.07 0 34.29 8.42 38.58 22.05l-20.82 3.67c-2.6-6-9.34-9.49-17.15-9.49-9.64 0-15.31 3.37-15.31 9.18.04 17.45 55.46 1.84 55.46 36.9zm-42.43-150.94h-23.26v-14.24c-4.29 10.1-15.62 16.38-27.87 16.38-21.73 0-38.88-16.38-38.88-45.77s17-45.47 38.73-45.47c12.4 0 23.58 6.12 28 16.53v-14.85h23.26zm29.38 333.11c7 0 13.16 4.14 13.16 11.79s-6.12 11.78-13.16 11.78c-7.81 0-13.32-4.13-13.32-11.78s5.51-11.79 13.32-11.79zm-9.29-333v-87.53h23.12v87.57zm11.64-98.89c-7.66 0-13.32-4.29-13.32-11.79 0-7.65 5.66-11.79 13.32-11.79 7.19 0 13.31 4.14 13.31 11.79 0 7.54-6.12 11.83-13.31 11.83zm27.1-345.52c28.94 0 45.93 20.21 43.17 50.83h-64.75c.46 14.23 9 22.5 23 22.5 9.95 0 16.54-3.67 19.75-10.87l21.28 2.6c-6.28 17-20.51 25.88-41.64 25.88-27.56 0-45.62-18.07-45.62-45.47-.04-26.9 18.33-45.43 44.81-45.43zm-130.72-26.75h23.26v68l31.85-39.49h28.32L898.47 182l38.27 45.47h-28.47l-33.53-42.25v42.28h-23.26zm-9.68 220.9v-14.84h23.27v87.41H841.8v-14.24c-4.29 10.1-15.61 16.38-27.86 16.38-21.74 0-38.88-16.38-38.88-45.77s17-45.47 38.73-45.47c12.4 0 23.57 6.17 28.01 16.53zm-25 134.26v116h-23.43v-116zm-88.43 275.86c9.79 0 17.45-5.82 20.36-15.61l20.51 3.21c-4 20.37-19.29 31.84-42 31.84-25.41 0-44.09-18.67-44.09-45.46S701.88 671 727.29 671c23.43 0 37.66 10.56 42.1 31.84L749 706.05c-3.37-10.41-10.26-15.77-20.66-15.77-13 0-21.9 10.56-21.9 26.18s8.91 26.02 21.93 26.02zm-1.63 107.78h28.32l-36.43 42.09 38.27 45.46h-28.48l-33.52-42.25v42.25h-23.27v-116h23.27v68zm-.66-534.43c23.42 0 34 13.47 34 41v48.22h-23.29V359c0-16.07-6-23.42-19-23.42-13.47 0-18.83 8.57-18.83 24.8v44.7h-23.25v-87.56H699v14.08c4-9.6 13.76-15.77 27.08-15.77zm8.11 266.83h-21.9l48.07-110.83h21.74zm73.62-355.16v-87.56h23.11v87.56zm25-110.68c0 7.5-6.12 11.79-13.32 11.79-7.65 0-13.32-4.29-13.32-11.79S811.79 105 819.44 105c7.2 0 13.32 4.17 13.32 11.82zm-30.11-89.1c7 0 13.17 4.14 13.17 11.79s-6.18 11.79-13.22 11.79c-7.81 0-13.32-4.13-13.32-11.79s5.51-11.79 13.32-11.79zM652.93 139.94h23.27v14.39c3.06-9.8 13-16.08 25.41-16.08 14.24 0 21.58 5.05 26.33 18.68 4.13-10.56 14.39-18.68 30.77-18.68 21.89 0 30.92 12.56 30.92 43v46.25h-23.27v-44.09c0-18.52-4.59-25.56-16.53-25.56-12.25 0-17.14 7.35-17.14 24.8v44.85h-23.27v-43.93c0-19-4.29-25.57-16.08-25.57-12.09 0-17.14 7.81-17.14 26.33v43.17h-23.27zm-8.64 142.67c7.2 0 13.32 4.14 13.32 11.79s-6.12 11.79-13.32 11.79c-7.65 0-13.32-4.29-13.32-11.79s5.67-11.79 13.32-11.79zm11.48 34.91v87.56h-23.11v-87.56zm-6.58 175.89c12.4 0 23.58 6.12 28 16.53v-14.85h23.27v87.42H677.2v-14.24c-4.28 10.1-15.61 16.38-27.86 16.38-21.74 0-38.88-16.38-38.88-45.77s16.99-45.47 38.73-45.47zm-9.59 345.52c-7.66 0-13.32-4.29-13.32-11.79 0-7.66 5.66-11.8 13.32-11.8 7.19 0 13.32 4.14 13.32 11.8 0 7.5-6.13 11.79-13.32 11.79zm11.48 11.33v87.55H628v-87.55zM570 868.17c-12.25 0-17.15 7.35-17.15 24.79v44.85h-23.28v-43.92c0-19-4.28-25.58-16.07-25.58-12.1 0-17.15 7.81-17.15 26.34v43.16h-23.27v-87.55h23.27v14.39c3.06-9.81 13-16.09 25.41-16.09 14.24 0 21.59 5.06 26.33 18.68 4.14-10.55 14.4-18.68 30.78-18.68 21.89 0 30.92 12.56 30.92 43v46.23h-23.27v-44.07c0-18.52-4.59-25.55-16.52-25.55zm-22.72 148.34c-7.66 0-13.32-4.3-13.32-11.8 0-7.65 5.66-11.78 13.32-11.78 7.19 0 13.32 4.13 13.32 11.78-.01 7.5-6.14 11.8-13.33 11.8zm11.48 11.32v87.57h-23.13v-87.57zM506.8 671c28.94 0 45.93 20.21 43.17 50.82h-64.75c.46 14.24 9 22.51 23 22.51 9.95 0 16.53-3.68 19.75-10.87l21.28 2.6c-6.28 17-20.52 25.87-41.64 25.87C480 761.92 462 743.86 462 716.46c0-26.95 18.32-45.46 44.8-45.46zm-.8-265.92h-23.44V289H506zm15.23 114.66c.31-15.77 15.92-26.18 37.66-26.18 18.07 0 34.29 8.42 38.58 22.05l-20.82 3.67c-2.6-6-9.34-9.49-17.15-9.49-9.64 0-15.3 3.37-15.3 9.19 0 17.45 55.41 1.83 55.41 36.89 0 17.45-15.46 28.32-40 28.32-21.74 0-37.36-9.64-41.64-23.88l21.12-3.52c3.22 6.89 10.72 10.87 20.67 10.87 10.41 0 16.38-3.52 16.38-9.65.03-17.45-55.23-3.21-54.93-38.27zm82.71 268.82h-25.58l12.4-28.78-36.28-87.11h25.41l23.27 62.16 23.11-62.16h25.57zm40-38.73c0-7.66 5.51-11.79 13.32-11.79 7 0 13.17 4.13 13.17 11.79s-6.13 11.78-13.17 11.78c-7.88 0-13.39-4.13-13.39-11.78zM589.3 332.36v-14.84h23.27v87.41H589.3v-14.24c-4.29 10.1-15.61 16.38-27.86 16.38-21.74 0-38.89-16.38-38.89-45.77s17-45.47 38.74-45.47c12.4 0 23.57 6.17 28.01 16.53zm-69-194.11c12.4 0 23.58 6.13 28 16.54v-14.85h23.27v87.41h-23.23v-14.24c-4.29 10.1-15.62 16.38-27.86 16.38-21.74 0-38.89-16.38-38.89-45.77s17-45.47 38.73-45.47zm-39.54 371.69v-14.85H504v87.42h-23.24v-14.24c-4.28 10.1-15.61 16.38-27.86 16.38-21.73 0-38.88-16.38-38.88-45.77s17-45.47 38.73-45.47c12.4 0 23.58 6.12 28.01 16.53zM368.49 937.67v-14.24c-4.28 10.11-15.61 16.38-27.86 16.38-21.74 0-38.88-16.38-38.88-45.77s17-45.48 38.73-45.48c12.4 0 23.57 6.13 28 16.54v-14.84h23.27v87.41zm5.78 66.89l-47.91 110.84h-21.89l48.06-110.84zm-99.84-314c-12.25 0-17.15 7.34-17.15 24.8v44.84H234v-43.9c0-19-4.29-25.56-16.08-25.56-12.09 0-17.14 7.8-17.14 26.33v43.16h-23.25v-87.56h23.27v14.39c3.06-9.79 13-16.07 25.41-16.07 14.23 0 21.58 5 26.33 18.68 4.13-10.57 14.39-18.67 30.77-18.67 21.89 0 30.92 12.55 30.92 43v46.22H291v-44.07c0-18.52-4.63-25.56-16.57-25.56zM244.5 868.31c-13.47 0-18.83 8.58-18.83 24.8v44.7H202.4v-87.55h23.27v14.07c4-9.64 13.78-15.77 27.1-15.77 23.42 0 34 13.49 34 41v48.22h-23.29v-46.05c0-16.06-5.97-23.42-18.98-23.42zM142 566.74c9.95 0 16.53-3.67 19.75-10.87l21.28 2.6c-6.28 17-20.52 25.87-41.64 25.87-27.56 0-45.62-18.06-45.62-45.46 0-26.95 18.37-45.47 44.85-45.47 28.94 0 45.93 20.21 43.17 50.82H119c.47 14.24 9 22.51 23 22.51zm29 272.19c-7.65 0-13.32-4.29-13.32-11.79 0-7.66 5.67-11.8 13.32-11.8 7.2 0 13.32 4.14 13.32 11.8-.02 7.5-6.14 11.79-13.32 11.79zm11.48 11.33v87.55h-23.13v-87.55zM116 865.1v-14.84h23.27v87.41H116v-14.24c-4.29 10.11-15.61 16.38-27.86 16.38-21.74 0-38.88-16.38-38.88-45.77s17-45.48 38.73-45.48c12.39 0 23.56 6.13 28.01 16.54zm15.3 224.43c3.22 6.89 10.72 10.87 20.67 10.87 10.41 0 16.38-3.52 16.38-9.64 0-17.46-55.26-3.22-55-38.29.31-15.76 15.92-26.16 37.66-26.16 18.07 0 34.29 8.41 38.58 22L168.8 1052c-2.6-6-9.34-9.49-17.14-9.49-9.65 0-15.31 3.37-15.31 9.18 0 17.46 55.41 1.85 55.41 36.89 0 17.46-15.46 28.33-39.95 28.33-21.74 0-37.35-9.64-41.64-23.88zM237.71 611h-25.56l12.4-28.78-36.28-87.11h25.41L237 557.25l23.11-62.16h25.57zM291 560.46c7 0 13.17 4.14 13.17 11.79S298 584 291 584c-7.81 0-13.32-4.14-13.32-11.79s5.49-11.75 13.32-11.75zm71.18 4.44c9.79 0 17.45-5.81 20.36-15.61L403 552.5c-4 20.36-19.29 31.84-41.95 31.84-25.41 0-44.08-18.67-44.08-45.46s18.67-45.47 44.08-45.47c23.43 0 37.66 10.56 42.1 31.84l-20.36 3.22c-3.37-10.41-10.25-15.77-20.66-15.77-13 0-21.9 10.56-21.9 26.18s8.91 26.02 21.93 26.02zM344 661.35c-7.65 0-13.32-4.29-13.32-11.79 0-7.66 5.67-11.79 13.32-11.79 7.2 0 13.32 4.13 13.32 11.79.04 7.5-6.08 11.79-13.32 11.79zm11.48 11.32v87.56h-23.07v-87.56zm30 326.68H409v116.05h-23.46zM399.34 718v42.24h-23.27v-116h23.27v68l31.84-39.5h28.33l-36.44 42.1 38.27 45.46h-28.47zm24-312.91h-21.85l48.07-110.83h21.74zm-41.09-265.15h23.27V154c4-9.64 13.78-15.77 27.09-15.77 23.43 0 34 13.47 34 41v48.27h-23.28v-46.08c0-16.07-6-23.42-19-23.42-13.47 0-18.83 8.57-18.83 24.8v44.7h-23.25zM350.83 105c7.19 0 13.32 4.14 13.32 11.79s-6.13 11.79-13.32 11.79c-7.66 0-13.32-4.29-13.32-11.79S343.17 105 350.83 105zm11.48 34.91v87.59h-23.12v-87.56zm-23.93 175.92c12.4 0 23.58 6.13 28 16.53v-14.84h23.27v87.41H366.4v-14.24c-4.29 10.1-15.62 16.38-27.86 16.38-21.74 0-38.89-16.38-38.89-45.77s17-45.47 38.73-45.47zm-70.56-177.58c12.4 0 23.58 6.13 28 16.54v-14.85h23.27v87.41h-23.25v-14.24c-4.29 10.1-15.62 16.38-27.87 16.38-21.73 0-38.88-16.38-38.88-45.77s16.99-45.47 38.73-45.47zM248.07 316c18.06 0 34.29 8.43 38.57 22l-20.82 3.67c-2.6-6-9.33-9.49-17.14-9.49-9.65 0-15.31 3.37-15.31 9.19 0 17.45 55.42 1.83 55.42 36.89 0 17.45-15.46 28.32-40 28.32-21.74 0-37.35-9.64-41.64-23.88l21.13-3.52c3.21 6.89 10.71 10.87 20.67 10.87 10.41 0 16.38-3.52 16.38-9.65 0-17.45-55.27-3.21-55-38.27.38-15.73 16-26.13 37.74-26.13zm-59-204.52h23.42v116H189.1zm-33 5.21h21.74L129.92 227.5H108zm-14.13 199.14c12.4 0 23.58 6.13 28 16.53v-14.84h23.27v87.41H170v-14.24c-4.29 10.1-15.62 16.38-27.86 16.38-21.74 0-38.89-16.38-38.89-45.77s16.96-45.47 38.69-45.47zm-97-177.58c12.4 0 23.58 6.13 28 16.54v-14.85H96.2v87.41H72.94v-14.24c-4.29 10.1-15.62 16.38-27.87 16.38-21.73 0-38.88-16.38-38.88-45.77s16.99-45.47 38.73-45.47zM65 495.09h28.3l-36.44 42.1 38.27 45.47H66.66l-33.53-42.25v42.25H9.86v-116h23.27v68zM50.28 315.83c23.42 0 37.66 10.57 42.1 31.84L72 350.89c-3.37-10.41-10.26-15.77-20.67-15.77-13 0-21.89 10.56-21.89 26.18s8.88 26 21.89 26c9.8 0 17.45-5.81 20.36-15.61l20.51 3.21c-4 20.36-19.28 31.85-41.94 31.85-25.41 0-44.09-18.68-44.09-45.47s18.7-45.45 44.11-45.45zM44.92 671c12.4 0 23.58 6.12 28 16.53v-14.86H96.2v87.42H72.94v-14.24c-4.29 10.15-15.62 16.37-27.87 16.37-21.73 0-38.88-16.37-38.88-45.76S23.18 671 44.92 671zM32.67 821.78v116H9.25v-116zm61.54 432.78H29.46c.46 14.23 9 22.5 23 22.5 9.95 0 16.54-3.67 19.75-10.87l21.28 2.6c-6.28 17-20.51 25.88-41.64 25.88-27.56 0-45.62-18.08-45.62-45.48 0-26.93 18.37-45.47 44.85-45.47 28.92 0 45.92 20.22 43.13 50.84zm2-139.32H72.94V1101c-4.29 10.1-15.62 16.38-27.87 16.38-21.73 0-38.88-16.38-38.88-45.78s17-45.46 38.73-45.46c12.4 0 23.58 6.13 28 16.54v-14.86H96.2zm26.4 206.06l12.4-28.78-36.28-87.1h25.41l23.27 62.14 23.11-62.14h25.57l-47.93 115.88zm53.17 50.37c-7.66 0-13.32-4.29-13.32-11.79 0-7.66 5.66-11.8 13.32-11.8 7.19 0 13.31 4.14 13.31 11.8-.01 7.5-6.09 11.79-13.32 11.79zm25.66-77.32c-7.8 0-13.32-4.13-13.32-11.79s5.52-11.78 13.32-11.78c7 0 13.17 4.14 13.17 11.78s-6.14 11.79-13.18 11.79zm1.2-222.74c0-29.39 17-45.46 38.73-45.46 12.4 0 23.58 6.13 28 16.54v-14.86h23.26v87.41h-23.25V1101c-4.29 10.1-15.62 16.38-27.87 16.38-21.73.01-38.88-16.38-38.88-45.77zm70 203.6c9.79 0 17.45-5.8 20.36-15.61l20.51 3.21c-4 20.37-19.29 31.86-41.94 31.86-25.42 0-44.09-18.69-44.09-45.48s18.67-45.47 44.09-45.47c23.42 0 37.65 10.58 42.09 31.84l-20.36 3.23c-3.39-10.41-10.3-15.79-20.69-15.79-13 0-21.89 10.55-21.89 26.17s8.87 26.04 21.89 26.04zm141.87 17.61h-23.29v-14.24c-4.29 10.11-15.62 16.38-27.87 16.38-21.73 0-38.88-16.38-38.88-45.77s17-45.47 38.73-45.47c12.4 0 23.58 6.13 28 16.55v-14.85h23.26zm55.61 1.69c-21.74 0-37.35-9.65-41.64-23.89l21.12-3.52c3.22 6.89 10.72 10.87 20.67 10.87 10.41 0 16.38-3.52 16.38-9.65 0-17.44-55.26-3.21-55-38.26.31-15.76 15.92-26.17 37.66-26.17 18.07 0 34.29 8.42 38.58 22l-20.82 3.66c-2.6-6-9.34-9.49-17.14-9.49-9.65 0-15.31 3.37-15.31 9.2 0 17.44 55.41 1.82 55.41 36.89-.03 17.49-15.45 28.36-39.94 28.36zm45.46-179.27h-23.3V1101c-4.29 10.1-15.62 16.38-27.87 16.38-21.73 0-38.88-16.38-38.88-45.78s17-45.46 38.73-45.46c12.4 0 23.58 6.13 28 16.54v-14.86h23.27zm95.37 177.58h-23.29v-14.24c-4.29 10.11-15.66 16.42-27.87 16.42-21.73 0-38.88-16.38-38.88-45.77s17-45.47 38.73-45.47c12.4 0 23.58 6.13 28 16.55v-14.85h23.26zm-9-222.13v44.71h-23.26v-87.57H602v14.09c4-9.64 13.77-15.77 27.09-15.77 23.43 0 34 13.46 34 41v48.22h-23.32v-46.09c0-16.07-6-23.41-19-23.41-13.45.03-18.77 8.59-18.77 24.82zM644.64 1293h-21.89l48.06-110.82h21.74zm82.6 0h-23.42v-116h23.42zm-10.32-175.58c-21.74 0-38.89-16.38-38.89-45.78s17-45.46 38.73-45.46c12.4 0 23.58 6.13 28 16.54v-14.86h23.27v87.41h-23.25V1101c-4.29 10.11-15.62 16.39-27.86 16.39zm116.91 175.43h-23.27v-14.24c-4.29 10.11-15.62 16.38-27.87 16.38-21.73 0-38.88-16.38-38.88-45.77s17-45.47 38.73-45.47c12.4 0 23.58 6.13 28 16.55v-14.85h23.27zm11.7-393.42h-64.76c.46 14.24 9 22.5 23 22.5 10 0 16.53-3.68 19.74-10.87l21.28 2.61c-6.27 17-20.51 25.87-41.64 25.87-27.55 0-45.61-18.07-45.61-45.47 0-26.95 18.37-45.48 44.85-45.48 28.9-.03 45.89 20.19 43.14 50.81zM847 760.09v-14.24c-4.28 10.11-15.61 16.37-27.86 16.37-21.74 0-38.88-16.37-38.88-45.76S797.22 671 819 671c12.4 0 23.57 6.12 28 16.53v-14.86h23.27v87.42zM877 1293h-23.09v-87.55H877zm-11.48-98.89c-7.66 0-13.32-4.28-13.32-11.78s5.66-11.79 13.32-11.79c7.19 0 13.32 4.14 13.32 11.79s-6.1 11.75-13.29 11.75zm115.8 98.89h-23.27v-46.1c0-16.08-6-23.43-19-23.43-13.47 0-18.83 8.58-18.83 24.81V1293H897v-87.55h23.27v14.07c4-9.64 13.77-15.77 27.09-15.77 23.43 0 34 13.47 34 41zm4.75-177.57H962.8v-44.09c0-18.52-4.59-25.57-16.53-25.57-12.25 0-17.14 7.35-17.14 24.81v44.85h-23.27v-43.94c0-19-4.29-25.56-16.08-25.56-12.09 0-17.14 7.8-17.14 26.32v43.18h-23.27v-87.57h23.27v14.39c3.06-9.79 13-16.07 25.41-16.07 14.24 0 21.58 5 26.33 18.67 4.13-10.55 14.39-18.67 30.77-18.67 21.89 0 30.92 12.55 30.92 43zM978.76 894c0-26.8 18.68-45.48 44.09-45.48 23.42 0 37.66 10.58 42.1 31.86l-20.36 3.2c-3.37-10.41-10.26-15.77-20.67-15.77-13 0-21.89 10.58-21.89 26.19s8.88 26 21.89 26c9.8 0 17.45-5.82 20.36-15.62l20.51 3.23c-4 20.36-19.28 31.84-41.94 31.84-25.41.06-44.09-18.63-44.09-45.45zm37.12 122.47c-7.65 0-13.32-4.3-13.32-11.8 0-7.65 5.67-11.78 13.32-11.78 7.2 0 13.32 4.13 13.32 11.78 0 7.54-6.12 11.84-13.32 11.84zm11.48 11.32v87.57h-23.11v-87.57zm59 265h-23.27v-14.24c-4.29 10.11-15.62 16.38-27.86 16.38-21.74 0-38.89-16.38-38.89-45.77s17-45.47 38.73-45.47c12.4 0 23.58 6.13 28 16.55v-14.85h23.27zm18.38-177.42l-33.53-42.25v42.25h-23.27V999.35h23.27v68l31.85-39.49h28.32l-36.44 42.11 38.27 45.46zm73.93-89.25c28.94 0 45.93 20.2 43.17 50.82h-64.75c.46 14.23 9 22.5 23 22.5 10 0 16.53-3.66 19.75-10.87l21.28 2.6c-6.28 17-20.51 25.88-41.64 25.88-27.56 0-45.62-18.06-45.62-45.47-.07-26.9 18.3-45.43 44.78-45.43zM1153 1371.67c-7.65 0-13.32-4.29-13.32-11.79 0-7.66 5.67-11.8 13.32-11.8 7.2 0 13.32 4.14 13.32 11.8.03 7.5-6.09 11.79-13.32 11.79zm151.32-78.7h-23.27v-44.08c0-18.53-4.59-25.57-16.53-25.57-12.25 0-17.14 7.36-17.14 24.8V1293h-23.27v-43.92c0-19-4.29-25.58-16.08-25.58-12.09 0-17.14 7.82-17.14 26.34V1293h-23.27v-87.55h23.27v14.39c3.06-9.8 13-16.09 25.41-16.09 14.24 0 21.58 5.06 26.33 18.69 4.13-10.57 14.39-18.69 30.77-18.69 21.89 0 30.92 12.57 30.92 43zm11.36-188c0-7.65 5.51-11.79 13.32-11.79 7 0 13.17 4.14 13.17 11.79s-6.13 11.8-13.17 11.8c-7.78.01-13.29-4.12-13.29-11.77zm29.93 188h-23.11v-87.55h23.11zm-11.48-98.89c-7.65 0-13.32-4.28-13.32-11.78s5.67-11.79 13.32-11.79c7.2 0 13.32 4.14 13.32 11.79s-6.09 11.78-13.29 11.78zm4.87-256.41v-14.24c-4.29 10.11-15.62 16.38-27.86 16.38-21.74 0-38.89-16.38-38.89-45.77s17-45.48 38.74-45.48c12.4 0 23.57 6.13 28 16.54v-14.84h23.27v87.41zm60.16 88.48c23.43 0 37.66 10.56 42.1 31.83l-20.36 3.22c-3.37-10.4-10.25-15.76-20.66-15.76-13 0-21.9 10.55-21.9 26.17s8.88 26 21.9 26c9.79 0 17.45-5.82 20.36-15.61l20.51 3.2c-4 20.36-19.29 31.85-41.95 31.85-25.41 0-44.08-18.67-44.08-45.47s18.64-45.43 44.05-45.43zM1423 1293l-33.53-42.25V1293h-23.27v-116h23.26v68l31.85-39.49h28.32l-36.44 42.09 38.27 45.46zm117.1-38.41h-64.75c.46 14.23 9 22.5 23 22.5 10 0 16.54-3.67 19.75-10.87l21.28 2.6c-6.28 17-20.51 25.88-41.64 25.88-27.56 0-45.62-18.08-45.62-45.48 0-26.93 18.37-45.47 44.85-45.47 28.89-.03 45.88 20.19 43.12 50.81zm2-139.32h-23.26V1101c-4.29 10.1-15.62 16.38-27.87 16.38-21.73 0-38.88-16.38-38.88-45.78s17-45.46 38.73-45.46c12.4 0 23.58 6.13 28 16.54v-14.86h23.26zm26.4 206.06l12.4-28.78-36.28-87.1H1570l23.27 62.14 23.11-62.14H1642l-48 115.85zm53.17 50.37c-7.66 0-13.32-4.29-13.32-11.79 0-7.66 5.66-11.8 13.32-11.8 7.19 0 13.31 4.14 13.31 11.8.02 7.47-6.14 11.76-13.33 11.76zm25.66-77.32c-7.8 0-13.32-4.13-13.32-11.79s5.52-11.78 13.32-11.78c7 0 13.17 4.14 13.17 11.78s-6.15 11.76-13.19 11.76zm1.2-222.74c0-29.39 17-45.46 38.73-45.46 12.4 0 23.58 6.13 28 16.54v-14.86h23.27v87.41h-23.27V1101c-4.28 10.1-15.61 16.38-27.86 16.38-21.74.01-38.89-16.38-38.89-45.77zm70 203.6c9.79 0 17.45-5.8 20.36-15.61l20.51 3.21c-4 20.37-19.29 31.86-41.95 31.86-25.41 0-44.08-18.69-44.08-45.48s18.67-45.47 44.08-45.47c23.43 0 37.66 10.58 42.1 31.84l-20.36 3.23c-3.36-10.41-10.25-15.77-20.66-15.77-13 0-21.89 10.55-21.89 26.17s8.83 25.99 21.85 25.99zm141.87 17.61h-23.3v-14.24c-4.29 10.11-15.62 16.38-27.87 16.38-21.73 0-38.88-16.38-38.88-45.77s17-45.47 38.73-45.47c12.4 0 23.58 6.13 28 16.55v-14.85h23.26zm55.61 1.69c-21.74 0-37.35-9.65-41.64-23.89l21.12-3.52c3.22 6.89 10.72 10.87 20.67 10.87 10.41 0 16.38-3.52 16.38-9.65 0-17.44-55.26-3.21-55-38.26.31-15.76 15.92-26.17 37.66-26.17 18.07 0 34.29 8.42 38.58 22l-20.82 3.66c-2.6-6-9.34-9.49-17.15-9.49-9.64 0-15.3 3.37-15.3 9.2 0 17.44 55.41 1.82 55.41 36.89 0 17.46-15.46 28.33-39.92 28.33zm45.45-179.27h-23.26V1101c-4.29 10.1-15.62 16.38-27.87 16.38-21.73 0-38.88-16.38-38.88-45.78s17-45.46 38.73-45.46c12.4 0 23.58 6.13 28 16.54v-14.86h23.26zm95.38 177.58h-23.26v-14.24c-4.29 10.11-15.62 16.38-27.87 16.38-21.73 0-38.88-16.38-38.88-45.77s17-45.47 38.73-45.47c12.4 0 23.58 6.13 28 16.55v-14.85h23.26zm-9-222.13v44.71h-23.27v-87.57h23.27v14.09c4-9.64 13.77-15.77 27.09-15.77 23.42 0 34 13.46 34 41v48.22h-23.27v-46.09c0-16.07-6-23.41-19-23.41-13.47 0-18.82 8.56-18.82 24.79zm42.68 222.28h-21.89l48.06-110.82h21.74zm82.6 0h-23.42v-116h23.42zm-10.32-175.58c-21.74 0-38.89-16.38-38.89-45.78s17-45.46 38.73-45.46c12.4 0 23.58 6.13 28 16.54v-14.86h23.27v87.41h-23.27V1101c-4.27 10.11-15.64 16.39-27.84 16.39zm116.9 175.43h-23.26v-14.24c-4.29 10.11-15.62 16.38-27.87 16.38-21.73 0-38.88-16.38-38.88-45.77s17-45.47 38.73-45.47c12.4 0 23.58 6.13 28 16.55v-14.85h23.26zm11.71-393.42h-64.76c.46 14.24 9 22.5 23 22.5 10 0 16.53-3.68 19.74-10.87l21.28 2.61c-6.27 17-20.51 25.87-41.64 25.87-27.55 0-45.62-18.07-45.62-45.47 0-26.95 18.37-45.48 44.86-45.48 28.9-.03 45.89 20.19 43.14 50.81zm1.44-139.31v-14.27c-4.28 10.11-15.61 16.37-27.86 16.37-21.74 0-38.88-16.37-38.88-45.76s17-45.47 38.73-45.47c12.4 0 23.57 6.12 28 16.53v-14.85h23.27v87.42zm30.06 532.88h-23.12v-87.55h23.12zm-11.48-98.89c-7.66 0-13.32-4.28-13.32-11.78s5.66-11.79 13.32-11.79c7.19 0 13.32 4.14 13.32 11.79s-6.13 11.75-13.32 11.75zM2427.2 1293h-23.27v-46.1c0-16.08-6-23.43-19-23.43-13.48 0-18.83 8.58-18.83 24.81V1293h-23.27v-87.55h23.27v14.07c4-9.64 13.77-15.77 27.09-15.77 23.43 0 34 13.47 34 41zm4.8-177.6h-23.27v-44.09c0-18.52-4.59-25.57-16.53-25.57-12.25 0-17.14 7.35-17.14 24.81v44.85h-23.27v-43.94c0-19-4.29-25.56-16.08-25.56-12.09 0-17.14 7.8-17.14 26.32v43.18h-23.27v-87.57h23.27v14.39c3.06-9.79 13-16.07 25.41-16.07 14.24 0 21.58 5 26.33 18.67 4.13-10.55 14.39-18.67 30.77-18.67 21.89 0 30.92 12.55 30.92 43zm-7.36-221.4c0-26.8 18.68-45.48 44.09-45.48 23.42 0 37.66 10.58 42.1 31.86l-20.36 3.2c-3.37-10.41-10.26-15.77-20.67-15.77-13 0-21.89 10.58-21.89 26.19s8.88 26 21.89 26c9.8 0 17.45-5.82 20.36-15.62l20.51 3.23c-4 20.36-19.28 31.84-41.94 31.84-25.41.06-44.09-18.63-44.09-45.45zm37.12 122.47c-7.65 0-13.32-4.3-13.32-11.8 0-7.65 5.67-11.78 13.32-11.78 7.2 0 13.32 4.13 13.32 11.78 0 7.54-6.08 11.84-13.32 11.84zm11.48 11.32v87.57h-23.11v-87.57zm59 265h-23.27v-14.24c-4.29 10.11-15.62 16.38-27.86 16.38-21.74 0-38.89-16.38-38.89-45.77s17-45.47 38.73-45.47c12.4 0 23.58 6.13 28 16.55v-14.85h23.27zm18.38-177.42l-33.53-42.25v42.25h-23.27V999.35h23.27v68l31.85-39.49h28.32l-36.44 42.11 38.27 45.46zm-4.32-355.17h-21.89l48.07-110.82h21.74z" class="f43d9859-9582-486b-8614-5d609356fb55" transform="translate(0 13.38)"/>
    <path d="M2271.42 690.28c-12.86 0-22 9.64-22 26.18s9.18 26.33 22.19 26.33c12.86 0 22-9.8 22-26.33s-9.18-26.18-22.19-26.18zM1317.54 867.85c-12.86 0-22 9.66-22 26.19 0 16.68 9.19 26.32 22.2 26.32 12.86 0 22-9.8 22-26.32s-9.19-26.19-22.2-26.19z" class="f43d9859-9582-486b-8614-5d609356fb55" transform="translate(0 13.38)"/>
  </g>
</svg>
